<?xml version="1.0" encoding="UTF-8" standalone="no"?>
<!-- Created with Inkscape (http://www.inkscape.org/) -->

<svg
   xmlns:dc="http://purl.org/dc/elements/1.1/"
   xmlns:cc="http://creativecommons.org/ns#"
   xmlns:rdf="http://www.w3.org/1999/02/22-rdf-syntax-ns#"
   xmlns:svg="http://www.w3.org/2000/svg"
   xmlns="http://www.w3.org/2000/svg"
   xmlns:xlink="http://www.w3.org/1999/xlink"
   xmlns:sodipodi="http://sodipodi.sourceforge.net/DTD/sodipodi-0.dtd"
   xmlns:inkscape="http://www.inkscape.org/namespaces/inkscape"
   version="1.0"
   width="730"
   height="390"
   id="svg2"
   sodipodi:version="0.32"
   inkscape:version="0.48.4 r9939"
   sodipodi:docname="Asymetric_cryptography_-_step_1.svg"
   inkscape:export-filename="P:\Mes Documents\01_Cours\120-Infobase\12020-supports_de_cours_et_tp\theorie\Asymetric_cryptography_-_step_1.png"
   inkscape:export-xdpi="90"
   inkscape:export-ydpi="90">
  <metadata
     id="metadata61">
    <rdf:RDF>
      <cc:Work
         rdf:about="">
        <dc:format>image/svg+xml</dc:format>
        <dc:type
           rdf:resource="http://purl.org/dc/dcmitype/StillImage" />
        <dc:title></dc:title>
      </cc:Work>
    </rdf:RDF>
  </metadata>
  <sodipodi:namedview
     inkscape:window-height="1028"
     inkscape:window-width="1680"
     inkscape:pageshadow="2"
     inkscape:pageopacity="0.0"
     borderopacity="1.0"
     bordercolor="#666666"
     pagecolor="#ffffff"
     id="base"
     showgrid="false"
     inkscape:zoom="2.0876712"
     inkscape:cx="367.19836"
     inkscape:cy="277.39921"
     inkscape:window-x="-8"
     inkscape:window-y="-8"
     inkscape:window-maximized="1"
     inkscape:current-layer="svg2" />
  <defs
     id="defs4">
    <linearGradient
       id="linearGradient16361">
      <stop
         style="stop-color:#69b631;stop-opacity:1"
         offset="0"
         id="stop16363" />
      <stop
         style="stop-color:#ffffff;stop-opacity:1"
         offset="1"
         id="stop16365" />
    </linearGradient>
    <linearGradient
       id="linearGradient13712">
      <stop
         style="stop-color:#9d58a0;stop-opacity:1"
         offset="0"
         id="stop13714" />
      <stop
         style="stop-color:#bb2bd7;stop-opacity:1"
         offset="1"
         id="stop13716" />
    </linearGradient>
    <linearGradient
       id="linearGradient4859">
      <stop
         style="stop-color:#ffffff;stop-opacity:1"
         offset="0"
         id="stop4861" />
      <stop
         style="stop-color:#ffffff;stop-opacity:0"
         offset="1"
         id="stop4863" />
    </linearGradient>
    <linearGradient
       id="linearGradient3100">
      <stop
         style="stop-color:#e99d30;stop-opacity:1"
         offset="0"
         id="stop3102" />
      <stop
         style="stop-color:#e99d30;stop-opacity:0"
         offset="1"
         id="stop3104" />
    </linearGradient>
    <linearGradient
       x1="456.92114"
       y1="552.36664"
       x2="485.71429"
       y2="466.64789"
       id="linearGradient3106"
       xlink:href="#linearGradient3100"
       gradientUnits="userSpaceOnUse" />
    <linearGradient
       x1="117.78982"
       y1="514.12817"
       x2="165.93407"
       y2="514.12817"
       id="linearGradient4865"
       xlink:href="#linearGradient4859"
       gradientUnits="userSpaceOnUse" />
    <linearGradient
       x1="90.549141"
       y1="617.42798"
       x2="144.02252"
       y2="638.20612"
       id="linearGradient13705"
       xlink:href="#linearGradient13712"
       gradientUnits="userSpaceOnUse" />
    <linearGradient
       x1="456.92114"
       y1="552.36664"
       x2="485.71429"
       y2="466.64789"
       id="linearGradient15484"
       xlink:href="#linearGradient3100"
       gradientUnits="userSpaceOnUse" />
    <linearGradient
       x1="117.78982"
       y1="514.12817"
       x2="165.93407"
       y2="514.12817"
       id="linearGradient15486"
       xlink:href="#linearGradient4859"
       gradientUnits="userSpaceOnUse" />
    <linearGradient
       x1="90.549141"
       y1="617.42798"
       x2="528.74286"
       y2="756.71814"
       id="linearGradient16367"
       xlink:href="#linearGradient16361"
       gradientUnits="userSpaceOnUse" />
    <linearGradient
       x1="335.0011"
       y1="216.04376"
       x2="335.0011"
       y2="236.74471"
       id="linearGradient7130"
       xlink:href="#linearGradient5158"
       gradientUnits="userSpaceOnUse" />
    <filter
       id="filter7120">
      <feGaussianBlur
         id="feGaussianBlur7122"
         stdDeviation="3.92425"
         inkscape:collect="always" />
    </filter>
    <linearGradient
       x1="335.0011"
       y1="216.04376"
       x2="335.0011"
       y2="236.74471"
       id="linearGradient5164"
       xlink:href="#linearGradient5158"
       gradientUnits="userSpaceOnUse" />
    <linearGradient
       id="linearGradient5158">
      <stop
         style="stop-color:#e6e699;stop-opacity:1"
         offset="0"
         id="stop5160" />
      <stop
         style="stop-color:#aeae2a;stop-opacity:1"
         offset="1"
         id="stop5162" />
    </linearGradient>
  </defs>
  <g
     id="layer1">
    <path
       d="M 279.51708,590.08392 A 93.483971,54.688126 0 1 1 92.549141,590.08392"
       transform="matrix(-1,0,0,-1.717949,308.1992,1237.519)"
       style="opacity:1;fill:url(#linearGradient13705);fill-opacity:1;fill-rule:nonzero;stroke:#841ad5;stroke-width:4;stroke-linecap:butt;stroke-linejoin:miter;stroke-miterlimit:4;stroke-dasharray:none;stroke-opacity:1"
       id="path7520" />
    <path
       d="M 485.71429 466.64789 A 172.85715 171.42857 0 1 1  140,466.64789 A 172.85715 171.42857 0 1 1  485.71429 466.64789 z"
       transform="matrix(0.433884,0,0,0.4375,-11.82622,-125.8577)"
       style="opacity:1;fill:#eeac4d;fill-opacity:1;fill-rule:nonzero;stroke:#854b12;stroke-width:9.18087673;stroke-linecap:butt;stroke-linejoin:miter;stroke-miterlimit:4;stroke-dasharray:none;stroke-opacity:1"
       id="path1307" />
    <path
       d="M 485.71429 466.64789 A 172.85715 171.42857 0 1 1  140,466.64789 A 172.85715 171.42857 0 1 1  485.71429 466.64789 z"
       transform="matrix(0.420736,0,0,0.424242,-7.757917,-119.6063)"
       style="opacity:1;fill:url(#linearGradient3106);fill-opacity:1;fill-rule:nonzero;stroke:none;stroke-width:5;stroke-linecap:butt;stroke-linejoin:miter;stroke-miterlimit:4;stroke-dasharray:none;stroke-opacity:1"
       id="path1352" />
    <path
       d="M 138.84718,37.613698 C 126.45223,31.685258 106.13872,29.664668 83.81238,48.199468 C 71.32409,58.566958 48.52513,54.602658 56.44444,45.279308 C 77.33021,20.690608 75.41306,10.498509 126.39749,3.8929286 C 146.70855,1.2614187 172.86704,16.809108 189.40829,41.818898 C 198.15113,55.037758 193.41313,63.712278 138.84718,37.613698 z "
       style="fill:#854b12;fill-opacity:1;fill-rule:nonzero;stroke:none;stroke-width:4;stroke-linecap:butt;stroke-linejoin:miter;stroke-miterlimit:4;stroke-opacity:1"
       id="path3108" />
    <path
       d="M 165.93406 514.12817 A 24.072123 31.083422 0 1 1  117.78982,514.12817 A 24.072123 31.083422 0 1 1  165.93406 514.12817 z"
       transform="matrix(-0.649006,-8.238005e-2,0.599007,-0.629245,-130.7293,365.364)"
       style="opacity:0.30901292;fill:url(#linearGradient4865);fill-opacity:1;fill-rule:nonzero;stroke:none;stroke-width:4;stroke-linecap:butt;stroke-linejoin:miter;stroke-miterlimit:4;stroke-dasharray:none;stroke-opacity:1"
       id="path3984" />
    <path
       d="M 94.418816 333.00299 A 37.861012 26.175512 0 1 1  18.696793,333.00299 A 37.861012 26.175512 0 1 1  94.418816 333.00299 z"
       transform="matrix(0.661671,-6.144658e-2,6.42949e-2,0.542229,-28.34098,-126.2843)"
       style="opacity:1;fill:#854b12;fill-opacity:1;fill-rule:nonzero;stroke:none;stroke-width:4;stroke-linecap:butt;stroke-linejoin:miter;stroke-miterlimit:4;stroke-dasharray:none;stroke-opacity:1"
       id="path5740" />
    <path
       d="M 94.418816 333.00299 A 37.861012 26.175512 0 1 1  18.696793,333.00299 A 37.861012 26.175512 0 1 1  94.418816 333.00299 z"
       transform="matrix(0.661099,6.732279e-2,-4.149132e-2,0.544449,192.4325,-135.9423)"
       style="opacity:1;fill:#854b12;fill-opacity:1;fill-rule:nonzero;stroke:none;stroke-width:4;stroke-linecap:butt;stroke-linejoin:miter;stroke-miterlimit:4;stroke-dasharray:none;stroke-opacity:1"
       id="path6615" />
    <path
       d="M 279.51708,590.08392 A 93.483971,54.688126 0 1 1 92.549141,590.08392"
       transform="matrix(-1,0,0,-1.717949,819.1127,1237.518)"
       style="opacity:1;fill:url(#linearGradient16367);fill-opacity:1;fill-rule:nonzero;stroke:#008d00;stroke-width:4.0001359;stroke-linecap:butt;stroke-linejoin:miter;stroke-miterlimit:4;stroke-dasharray:none;stroke-opacity:1"
       id="path15466" />
    <path
       d="M 485.71429 466.64789 A 172.85715 171.42857 0 1 1  140,466.64789 A 172.85715 171.42857 0 1 1  485.71429 466.64789 z"
       transform="matrix(0.433884,0,0,0.4375,499.0872,-125.8577)"
       style="opacity:1;fill:#eeac4d;fill-opacity:1;fill-rule:nonzero;stroke:#854b12;stroke-width:9.18087673;stroke-linecap:butt;stroke-linejoin:miter;stroke-miterlimit:4;stroke-dasharray:none;stroke-opacity:1"
       id="path15470" />
    <path
       d="M 485.71429 466.64789 A 172.85715 171.42857 0 1 1  140,466.64789 A 172.85715 171.42857 0 1 1  485.71429 466.64789 z"
       transform="matrix(0.420736,0,0,0.424242,503.1555,-119.6063)"
       style="opacity:1;fill:url(#linearGradient15484);fill-opacity:1;fill-rule:nonzero;stroke:none;stroke-width:5;stroke-linecap:butt;stroke-linejoin:miter;stroke-miterlimit:4;stroke-dasharray:none;stroke-opacity:1"
       id="path15472" />
    <path
       d="M 649.76067,37.613698 C 637.36572,31.685258 617.0522,29.664668 594.72586,48.199468 C 582.23757,58.566958 559.43861,54.602658 567.35792,45.279308 C 588.24369,20.690608 586.32654,10.498509 637.31098,3.8929286 C 657.62204,1.2614187 683.78053,16.809108 700.32178,41.818898 C 709.06462,55.037758 704.32662,63.712278 649.76067,37.613698 z "
       style="fill:#854b12;fill-opacity:1;fill-rule:nonzero;stroke:none;stroke-width:4;stroke-linecap:butt;stroke-linejoin:miter;stroke-miterlimit:4;stroke-opacity:1"
       id="path15474" />
    <path
       d="M 165.93406 514.12817 A 24.072123 31.083422 0 1 1  117.78982,514.12817 A 24.072123 31.083422 0 1 1  165.93406 514.12817 z"
       transform="matrix(-0.649006,-8.238005e-2,0.599007,-0.629245,380.1842,365.364)"
       style="opacity:0.30901292;fill:url(#linearGradient15486);fill-opacity:1;fill-rule:nonzero;stroke:none;stroke-width:4;stroke-linecap:butt;stroke-linejoin:miter;stroke-miterlimit:4;stroke-dasharray:none;stroke-opacity:1"
       id="path15476" />
    <g
       transform="matrix(0.302415,0,0,0.302415,32.62168,212.8288)"
       id="g17316">
      <g
         transform="translate(0,1.500626)"
         id="g7124">
        <path
           d="M 111.80447,74.819768 C 54.713602,74.819768 8.3749981,127.07993 8.3749981,191.45618 C 8.3749981,255.83242 54.713602,308.07022 111.80447,308.07021 C 157.2323,308.07021 195.84914,275.00133 209.7315,229.05195 L 294.33531,229.05195 L 465.46575,227.88471 L 436.81442,310.32159 L 549.28061,310.32159 L 513.02917,227.32158 L 567.73297,227.04487 L 566.79076,169.29789 L 205.91404,170.08054 C 191.44547,125.34944 156.4592,74.819768 111.80447,74.819768 z "
           style="opacity:1;fill:#76ff77;fill-opacity:0.88235294;stroke:#000000;stroke-width:11.08277225;stroke-linecap:butt;stroke-linejoin:miter;stroke-miterlimit:4;stroke-dasharray:none;stroke-dashoffset:0;stroke-opacity:1"
           id="path2221" />
        <path
           d="M 73.931769,167.27576 C 88.614069,167.27577 100.51735,180.57783 100.51735,196.964 C 100.51735,213.35017 88.614069,226.65223 73.931769,226.65223 C 59.249479,226.65223 47.323813,213.35017 47.323813,196.964 C 47.323813,180.57782 59.249469,167.27576 73.931769,167.27576 z "
           style="opacity:1;fill:#ffffff;fill-opacity:1;fill-rule:nonzero;stroke:#000000;stroke-width:8.40058231;stroke-linecap:butt;stroke-linejoin:miter;stroke-miterlimit:4;stroke-dasharray:none;stroke-dashoffset:0;stroke-opacity:1"
           id="path5166" />
        <rect
           width="140.41501"
           height="140.41539"
           ry="0"
           x="265.30695"
           y="120.96494"
           style="opacity:1;fill:#ffffff;fill-opacity:1;fill-rule:nonzero;stroke:#000000;stroke-width:7.56548834;stroke-linecap:butt;stroke-linejoin:miter;stroke-miterlimit:4;stroke-dasharray:none;stroke-opacity:1"
           id="rect22563" />
        <path
           d="M 330.64224,149.43662 L 311.37662,201.67881 L 349.97818,201.67881 L 330.64224,149.43662 M 322.62662,135.44443 L 338.72818,135.44443 L 378.73599,240.421 L 363.97037,240.421 L 354.40787,213.49131 L 307.08756,213.49131 L 297.52506,240.421 L 282.54849,240.421 L 322.62662,135.44443"
           style="font-size:158.72227478px;font-style:normal;font-variant:normal;font-weight:normal;font-stretch:normal;text-align:start;line-height:50%;writing-mode:lr-tb;text-anchor:start;fill:#000000;fill-opacity:1;stroke:none;stroke-width:1px;stroke-linecap:butt;stroke-linejoin:miter;stroke-opacity:1;font-family:Bitstream Vera Sans"
           id="path24328" />
        <path
           d="M 114.2065,339.12038 C 57.115632,339.12038 10.777028,391.38054 10.777028,455.75679 C 10.777028,520.13303 57.115632,572.37083 114.2065,572.37082 C 159.63433,572.37082 198.25117,539.30194 212.13353,493.35256 L 296.73734,493.35256 L 467.86778,492.18532 L 439.21645,574.6222 L 551.68264,574.6222 L 515.4312,491.62219 L 570.135,491.34548 L 569.19279,433.5985 L 208.31607,434.38115 C 193.8475,389.65005 158.86123,339.12038 114.2065,339.12038 z "
           style="opacity:1;fill:#ffa576;fill-opacity:0.88235294;stroke:#000000;stroke-width:11.08277225;stroke-linecap:butt;stroke-linejoin:miter;stroke-miterlimit:4;stroke-dasharray:none;stroke-dashoffset:0;stroke-opacity:1"
           id="path24332" />
        <path
           d="M 74.788175,433.12199 C 89.470475,433.122 101.37376,446.42406 101.37376,462.81023 C 101.37376,479.1964 89.470475,492.49846 74.788175,492.49846 C 60.105885,492.49846 48.180225,479.1964 48.180225,462.81023 C 48.180225,446.42405 60.105875,433.12199 74.788175,433.12199 z "
           style="opacity:1;fill:#ffffff;fill-opacity:1;fill-rule:nonzero;stroke:#000000;stroke-width:8.40058231;stroke-linecap:butt;stroke-linejoin:miter;stroke-miterlimit:4;stroke-dasharray:none;stroke-dashoffset:0;stroke-opacity:1"
           id="path24334" />
        <rect
           width="140.41501"
           height="140.41539"
           ry="0"
           x="267.70898"
           y="385.26553"
           style="opacity:1;fill:#ffffff;fill-opacity:1;fill-rule:nonzero;stroke:#000000;stroke-width:7.56548834;stroke-linecap:butt;stroke-linejoin:miter;stroke-miterlimit:4;stroke-dasharray:none;stroke-opacity:1"
           id="rect24336" />
        <path
           d="M 333.04427,413.73723 L 313.77865,465.97942 L 352.38021,465.97942 L 333.04427,413.73723 M 325.02865,399.74504 L 341.13021,399.74504 L 381.13802,504.72161 L 366.3724,504.72161 L 356.8099,477.79192 L 309.48959,477.79192 L 299.92709,504.72161 L 284.95052,504.72161 L 325.02865,399.74504"
           style="font-size:158.72227478px;font-style:normal;font-variant:normal;font-weight:normal;font-stretch:normal;text-align:start;line-height:50%;writing-mode:lr-tb;text-anchor:start;fill:#000000;fill-opacity:1;stroke:none;stroke-width:1px;stroke-linecap:butt;stroke-linejoin:miter;stroke-opacity:1;font-family:Bitstream Vera Sans"
           id="path24338" />
        <path
           d="M 1821.5269,75.093781 C 1764.436,75.093781 1718.0974,127.35395 1718.0974,191.7302 C 1718.0974,256.10644 1764.436,308.34424 1821.5269,308.34423 C 1866.9547,308.34423 1905.5715,275.27535 1919.4539,229.32597 L 2004.0577,229.32597 L 2175.1881,228.15873 L 2146.5368,310.59561 L 2259.003,310.59561 L 2222.7516,227.5956 L 2277.4554,227.31889 L 2276.5131,169.57191 L 1915.6364,170.35456 C 1901.1679,125.62346 1866.1816,75.093781 1821.5269,75.093781 z "
           style="opacity:1;fill:#76ff77;fill-opacity:0.88235294;stroke:#000000;stroke-width:11.08277225;stroke-linecap:butt;stroke-linejoin:miter;stroke-miterlimit:4;stroke-dasharray:none;stroke-dashoffset:0;stroke-opacity:1"
           id="path24340" />
        <path
           d="M 1834.6597,168.8223 C 1849.342,168.82231 1861.2453,182.12437 1861.2453,198.51054 C 1861.2453,214.89671 1849.342,228.19877 1834.6597,228.19877 C 1819.9775,228.19877 1808.0518,214.89671 1808.0518,198.51054 C 1808.0518,182.12436 1819.9774,168.8223 1834.6597,168.8223 z "
           style="opacity:1;fill:#ffffff;fill-opacity:1;fill-rule:nonzero;stroke:#000000;stroke-width:8.40058231;stroke-linecap:butt;stroke-linejoin:miter;stroke-miterlimit:4;stroke-dasharray:none;stroke-dashoffset:0;stroke-opacity:1"
           id="path24342" />
        <rect
           width="140.41501"
           height="140.41539"
           ry="0"
           x="1975.0293"
           y="120.96587"
           style="opacity:1;fill:#ffffff;fill-opacity:1;fill-rule:nonzero;stroke:#000000;stroke-width:7.56548834;stroke-linecap:butt;stroke-linejoin:miter;stroke-miterlimit:4;stroke-dasharray:none;stroke-opacity:1"
           id="rect24344" />
        <path
           d="M 2040.3646,149.43754 L 2021.099,201.67973 L 2059.7006,201.67973 L 2040.3646,149.43754 M 2032.349,135.44535 L 2048.4506,135.44535 L 2088.4584,240.42192 L 2073.6928,240.42192 L 2064.1303,213.49223 L 2016.8099,213.49223 L 2007.2474,240.42192 L 1992.2709,240.42192 L 2032.349,135.44535"
           style="font-size:158.72227478px;font-style:normal;font-variant:normal;font-weight:normal;font-stretch:normal;text-align:start;line-height:50%;writing-mode:lr-tb;text-anchor:start;fill:#000000;fill-opacity:1;stroke:none;stroke-width:1px;stroke-linecap:butt;stroke-linejoin:miter;stroke-opacity:1;font-family:Bitstream Vera Sans"
           id="path24346" />
        <path
           d="M 735.67463,197.33815 C 1559.2923,197.33815 1559.2923,197.33815 1559.2923,197.33815"
           style="fill:none;fill-opacity:0.75;fill-rule:evenodd;stroke:#000000;stroke-width:29.76042938;stroke-linecap:butt;stroke-linejoin:miter;stroke-miterlimit:4;stroke-dasharray:none;stroke-opacity:1"
           id="path24350" />
      </g>
    </g>
    <path
       d="M 305.39655,752.2539 L 283.48516,714.66605 L 261.88882,676.89631 L 305.39655,676.71441 L 348.90427,676.8963 L 327.30793,714.66605 L 305.39655,752.2539 z "
       transform="matrix(-8.577598e-3,-0.447408,0.447408,-8.577598e-3,190.8181,414.356)"
       style="opacity:1;fill:#000000;fill-opacity:1;fill-rule:nonzero;stroke:#000000;stroke-width:9;stroke-linecap:butt;stroke-linejoin:miter;stroke-miterlimit:4;stroke-dasharray:none;stroke-opacity:1"
       id="path26098" />
  </g>
  <text
     xml:space="preserve"
     style="font-size:40px;font-style:normal;font-weight:normal;line-height:125%;letter-spacing:0px;word-spacing:0px;fill:#000000;fill-opacity:1;stroke:none;font-family:Sans"
     x="103.46456"
     y="244.38319"
     id="text3035"
     sodipodi:linespacing="125%"><tspan
       sodipodi:role="line"
       id="tspan3037"
       x="103.46456"
       y="244.38319"
       style="font-size:22px;font-style:normal;font-variant:normal;font-weight:normal;font-stretch:normal;font-family:Linux Biolinum G;-inkscape-font-specification:Linux Biolinum G">Publique</tspan></text>
  <text
     xml:space="preserve"
     style="font-size:40px;font-style:normal;font-weight:normal;line-height:125%;letter-spacing:0px;word-spacing:0px;fill:#000000;fill-opacity:1;stroke:none;font-family:Sans"
     x="109.00986"
     y="325.64178"
     id="text3035-1"
     sodipodi:linespacing="125%"><tspan
       sodipodi:role="line"
       id="tspan3037-7"
       x="109.00986"
       y="325.64178"
       style="font-size:22px;font-style:normal;font-variant:normal;font-weight:normal;font-stretch:normal;font-family:Linux Biolinum G;-inkscape-font-specification:Linux Biolinum G">Privée</tspan></text>
  <text
     xml:space="preserve"
     style="font-size:40px;font-style:normal;font-weight:normal;line-height:125%;letter-spacing:0px;word-spacing:0px;fill:#000000;fill-opacity:1;stroke:none;font-family:Sans"
     x="620.58466"
     y="243.73235"
     id="text3035-4"
     sodipodi:linespacing="125%"><tspan
       sodipodi:role="line"
       id="tspan3037-0"
       x="620.58466"
       y="243.73235"
       style="font-size:22px;font-style:normal;font-variant:normal;font-weight:normal;font-stretch:normal;font-family:Linux Biolinum G;-inkscape-font-specification:Linux Biolinum G">Publique</tspan></text>
</svg>
